<svg xmlns="http://www.w3.org/2000/svg" width="450.0000000066666mm" height="87.99999998319444mm" viewBox="0 0 1275.5905512 249.44881885000004"><g transform="translate(0 0)"><g transform="translate(2279.0550987023425 37.04603370323655) rotate(180)"><polygon class="fil0 str0" points="2276.22 -28.3465 2276.22 11.3386 2199.69 19.8425 2171.34 28.3465 2160 34.0157 2142.99 25.5118 2117.48 17.0079 2117.48 -28.3465"/></g><g transform="translate(2279.0550986999997 -2.443367400000284) rotate(180)"><polygon class="fil0 str0" points="2276.22 -136.063 2276.22 -96.378 2199.69 -87.874 2171.34 -79.3701 2160 -73.7008 2142.99 -82.2047 2117.48 -90.7087 2117.48 -136.063"/></g><g transform="translate(2338.5826833 227.3585694999997) rotate(180)"><polygon class="fil0 str0" points="2335.75 25.5118 2335.75 65.1969 2259.21 73.7008 2230.87 82.2047 2219.53 87.874 2202.52 79.3701 2177.01 70.8661 2177.01 25.5118"/></g><g transform="translate(2284.7243868 42.61344349999973) rotate(180)"><polygon class="fil0 str0" points="2117.48 -136.063 2117.48 -96.378 2040.94 -87.874 2012.6 -79.3701 2001.26 -73.7008 1984.25 -82.2047 1958.74 -90.7087 1958.74 -136.063"/></g><g transform="translate(2443.4646245 -25.51180290000027) rotate(180)"><polygon class="fil0 str0" points="2117.48 -28.3465 2117.48 -68.0315 2194.02 -76.5354 2222.36 -85.0394 2233.7 -90.7087 2250.71 -82.2047 2276.22 -73.7008 2276.22 -28.3465"/></g><g transform="translate(-1805.7258574000002 22.5752847) rotate(0)"><polygon class="fil0 str0" points="2018.27 87.874 2018.27 48.189 2094.8 39.685 2123.15 31.1811 2134.49 25.5118 2151.5 34.0157 2177.01 42.5197 2177.01 87.874"/></g><g transform="translate(2449.1337905 87.77213539999974) rotate(180)"><polygon class="fil0 str0" points="1958.74 -28.3465 1958.74 -68.0315 2035.28 -76.5354 2063.62 -85.0394 2074.96 -90.7087 2091.97 -82.2047 2117.48 -73.7008 2117.48 -28.3465"/></g><g transform="translate(2459.7056703 36.85039189999974) rotate(180)"><polygon class="fil0 str0" points="1958.74 34.0157 1958.74 -5.66929 2035.28 -14.1732 2063.62 -22.6772 2074.96 -28.3465 2091.97 -19.8425 2117.48 -11.3386 2117.48 34.0157"/></g><g transform="translate(-1899.2692124999999 124.6225288) rotate(0)"><polygon class="fil0 str0" points="2276.22 -51.0236 2310.24 -53.8583 2315.91 -59.5276 2344.25 -51.0236 2369.76 -48.189 2443.46 -45.3543 2443.46 -14.1732 2287.56 -14.1732 2287.56 -28.3465 2281.89 -36.8504 2276.22 -36.8504"/></g><g transform="translate(-2055.3040016 195.503982) rotate(0)"><polygon class="fil0 str0" points="2432.13 -11.3386 2466.14 -14.1732 2471.81 -19.8425 2500.16 -11.3386 2525.67 -8.50394 2599.37 -5.66929 2599.37 25.5118 2443.46 25.5118 2443.46 11.3386 2437.8 2.83465 2432.13 2.83465"/></g><g transform="translate(-1936.063007 215.3311926) rotate(0)"><polygon class="fil0 str0" points="2599.37 -62.3622 2565.35 -59.5276 2559.69 -53.8583 2531.34 -62.3622 2505.83 -65.1969 2432.13 -68.0315 2432.13 -99.2126 2588.03 -99.2126 2588.03 -85.0394 2593.7 -76.5354 2599.37 -76.5354"/></g><g transform="translate(3117.3435896 -5.302311600000323) rotate(180)"><polygon class="fil0 str0" points="2610.71 -17.0079 2576.69 -14.1732 2571.02 -8.50394 2542.68 -17.0079 2517.17 -19.8425 2443.46 -22.6772 2443.46 -53.8583 2599.37 -53.8583 2599.37 -39.685 2605.04 -31.1811 2610.71 -31.1811"/></g><g transform="translate(2981.8613836 107.98162909999972) rotate(180)"><polygon class="fil0 str0" points="2264.88 -96.378 2298.9 -99.2126 2304.57 -104.882 2332.91 -96.378 2358.43 -93.5433 2432.13 -90.7087 2432.13 -59.5276 2276.22 -59.5276 2276.22 -73.7008 2270.55 -82.2047 2264.88 -82.2047"/></g><g transform="translate(-1726.3557805 68.3984768) rotate(0)"><polygon class="fil0 str0" points="2443.46 22.6772 2409.45 25.5118 2403.78 31.1811 2375.43 22.6772 2349.92 19.8425 2276.22 17.0079 2276.22 -14.1732 2432.13 -14.1732 2432.13 0 2437.8 8.50394 2443.46 8.50394"/></g><g transform="translate(3160.6299661000003 175.3732556999997) rotate(180)"><polygon class="fil0 str0" points="2502.99 68.0315 2468.98 70.8661 2463.31 76.5354 2434.96 68.0315 2409.45 65.1969 2335.75 62.3622 2335.75 31.1811 2491.65 31.1811 2491.65 45.3543 2497.32 53.8583 2502.99 53.8583"/></g><g transform="translate(-1596.6721776 151.7728489) rotate(0)"><polygon class="fil0 str0" points="2443.46 -99.2126 2409.45 -96.378 2403.78 -90.7087 2375.43 -99.2126 2349.92 -102.047 2276.22 -104.882 2276.22 -136.063 2432.13 -136.063 2432.13 -121.89 2437.8 -113.386 2443.46 -113.386"/></g><g transform="translate(-2091.9684843 110.64493279999999) rotate(0)"><polygon class="fil0 str0" points="2420.79 87.874 2259.21 87.874 2259.21 73.7008 2420.79 73.7008"/></g><g transform="translate(2735.433127 96.47170249999968) rotate(180)"><polygon class="fil0 str0" points="2443.46 -121.89 2568.19 -121.89 2568.19 -107.717 2443.46 -107.717"/></g><g transform="translate(-2429.2913224 343.5790389) rotate(0)"><polygon class="fil0 str0" points="2579.53 -121.89 2432.13 -121.89 2432.13 -136.063 2579.53 -136.063"/></g><g transform="translate(3296.5069933 237.7354600999997) rotate(180)"><polygon class="fil0 str0" points="2585.2 87.874 2466.14 87.874 2466.14 73.7008 2585.2 73.7008"/></g><g transform="translate(-2406.1471109 190.5649024) rotate(0)"><polygon class="fil0 str0" points="2590.87 -130.394 2602.2 -124.724 2607.87 -102.047 2602.2 -99.2126 2579.53 -99.2126 2573.86 -102.047 2579.53 -124.724"/></g><g transform="translate(2795.4275648 29.32468179999968) rotate(180)"><polygon class="fil0 str0" points="2610.71 -68.0315 2599.37 -73.7008 2593.7 -96.378 2599.37 -99.2126 2622.05 -99.2126 2627.72 -96.378 2622.05 -73.7008"/></g><g transform="translate(-2190.945977 153.7558359) rotate(0)"><polygon class="fil0 str0" points="2542.68 56.6929 2531.34 51.0236 2525.67 28.3465 2531.34 25.5118 2554.02 25.5118 2559.69 28.3465 2554.02 51.0236"/></g><g transform="translate(2715.8715451 242.29976329999977) rotate(180)"><polygon class="fil0 str0" points="1975.75 65.1969 1964.41 59.5276 1958.74 36.8504 1964.41 34.0157 1987.09 34.0157 1992.76 36.8504 1987.09 59.5276"/></g><g transform="translate(-1860.7970610000002 25.18361399999999) rotate(0)"><polygon class="fil0 str0" points="2599.37 45.3543 2610.71 51.0236 2616.38 73.7008 2610.71 76.5354 2588.03 76.5354 2582.36 73.7008 2588.03 51.0236"/></g><g transform="translate(2759.1129156 146.95992149999975) rotate(180)"><polygon class="fil0 str0" points="1989.92 56.6929 2001.26 62.3622 2006.93 85.0394 2001.26 87.874 1978.58 87.874 1972.91 85.0394 1978.58 62.3622"/></g><g transform="translate(3354.6006745 250.80368589999966) rotate(180)"><polygon class="fil0 str0" points="2573.86 73.7008 2562.52 68.0315 2556.85 45.3543 2562.52 42.5197 2585.2 42.5197 2590.87 45.3543 2585.2 68.0315"/></g><g transform="translate(-1715.3829715000002 48.4761175) rotate(0)"><polygon class="fil0 str0" points="2514.33 25.5118 2525.67 31.1811 2531.34 53.8583 2525.67 56.6929 2502.99 56.6929 2497.32 53.8583 2502.99 31.1811"/></g><g transform="translate(2450.2541173 39.80776789999975) rotate(180)"><polygon class="fil0 str0" points="1958.74 -28.3465 1998.43 -28.3465 1998.43 -14.1732 1958.74 -14.1732"/></g><g transform="translate(3088.6764215 208.45040489999968) rotate(180)"><polygon class="fil0 str0" points="2602.2 45.3543 2559.69 34.0157 2565.35 25.5118 2602.2 28.3465"/></g><g transform="translate(-1796.179725 232.18513489999998) rotate(0)"><polygon class="fil0 str0" points="2636.22 -42.5197 2593.7 -53.8583 2599.37 -62.3622 2636.22 -59.5276"/></g><g transform="translate(-1923.6040570999999 -18.2349039) rotate(0)"><polygon class="fil0 str0" points="2420.79 68.0315 2463.31 79.3701 2457.64 87.874 2420.79 85.0394"/></g><g transform="translate(3439.7203649 69.56818559999968) rotate(180)"><polygon class="fil0 str0" points="2636.22 -116.22 2593.7 -127.559 2599.37 -136.063 2636.22 -133.228"/></g><g transform="translate(3449.9281151 85.54117299999967) rotate(180)"><polygon class="fil0 str0" points="2599.37 2.83465 2641.89 14.1732 2636.22 22.6772 2599.37 19.8425"/></g><g transform="translate(3465.949079 137.44461009999966) rotate(180)"><polygon class="fil0 str0" points="2644.72 56.6929 2602.2 45.3543 2607.87 36.8504 2644.72 39.685"/></g><g transform="translate(3476.994064 73.55021439999967) rotate(180)"><polygon class="fil0 str0" points="2602.2 -51.0236 2644.72 -39.685 2639.06 -31.1811 2602.2 -34.0157"/></g><g transform="translate(-1768.8189066 132.8176231) rotate(0)"><polygon class="fil0 str0" points="2599.37 -14.1732 2641.89 -2.83465 2636.22 5.66929 2599.37 2.83465"/></g><g transform="translate(-2205.3543686999997 150.32940609999997) rotate(0)"><polygon class="fil0 str0" points="2539.84 70.8661 2502.99 70.8661 2502.99 56.6929 2539.84 56.6929"/></g><g transform="translate(3488.6821724 -56.692906400000325) rotate(180)"><polygon class="fil0 str0" points="2624.88 -82.2047 2633.39 -87.874 2647.56 -82.2047 2647.56 -59.5276 2630.55 -59.5276"/></g><g transform="translate(3479.5297186 225.2776675999997) rotate(180)"><polygon class="fil0 str0" points="2639.06 76.5354 2630.55 82.2047 2616.38 76.5354 2616.38 53.8583 2633.39 53.8583"/></g><g transform="translate(3500.5965297000002 -50.672575800000324) rotate(180)"><polygon class="fil0 str0" points="2624.88 -110.551 2633.39 -116.22 2647.56 -110.551 2647.56 -87.874 2630.55 -87.874"/></g><g transform="translate(-1785.6476312000002 162.915462) rotate(0)"><polygon class="fil0 str0" points="2661.73 36.8504 2653.23 42.5197 2639.06 36.8504 2639.06 14.1732 2656.06 14.1732"/></g><g transform="translate(2887.0887805 206.63738259999974) rotate(180)"><polygon class="fil0 str0" points="1995.59 39.685 2004.09 34.0157 2018.27 39.685 2018.27 62.3622 2001.26 62.3622"/></g><g transform="translate(-1765.0712812 37.2014401) rotate(0)"><polygon class="fil0 str0" points="2630.55 -28.3465 2639.06 -34.0157 2653.23 -28.3465 2653.23 -5.66929 2636.22 -5.66929"/></g><g transform="translate(-1767.9231512000001 14.372058300000006) rotate(0)"><polygon class="fil0 str0" points="2661.73 79.3701 2653.23 85.0394 2639.06 79.3701 2639.06 56.6929 2656.06 56.6929"/></g><g transform="translate(-1761.3310642000001 236.8070204) rotate(0)"><polygon class="fil0 str0" points="2639.06 -53.8583 2647.56 -59.5276 2661.73 -53.8583 2661.73 -31.1811 2644.72 -31.1811"/></g><g transform="translate(-1448.6897639 234.8163998) rotate(0)"><polygon class="fil0 str0" points="2032.44 -14.1732 1998.43 -14.1732 1998.43 -28.3465 2032.44 -28.3465"/></g><g transform="translate(-2052.3401555 70.50882910000001) rotate(0)"><polygon class="fil0 str0" points="2602.2 22.6772 2636.22 22.6772 2636.22 36.8504 2602.2 36.8504"/></g><g transform="translate(-2344.2520154 62.97506559999999) rotate(0)"><polygon class="fil0 str0" points="2389.61 -48.189 2347.09 -51.0236 2347.09 -59.5276 2389.61 -59.5276"/></g><g transform="translate(-2500.1575322 178.7783191) rotate(0)"><polygon class="fil0 str0" points="2502.99 -107.717 2562.52 -107.717 2562.52 -102.047 2502.99 -102.047"/></g><g transform="translate(2519.3581517 40.325821599999685) rotate(180)"><polygon class="fil0 str0" points="2443.46 -107.717 2502.99 -107.717 2502.99 -102.047 2443.46 -102.047"/></g><g transform="translate(-1820.028285 185.4922625) rotate(0)"><polygon class="fil0 str0" points="2409.45 25.5118 2468.98 25.5118 2468.98 31.1811 2409.45 31.1811"/></g><g transform="translate(2845.9275245999997 123.23190769999972) rotate(180)"><polygon class="fil0 str0" points="2196.85 19.8425 2256.38 19.8425 2256.38 25.5118 2196.85 25.5118"/></g><g transform="translate(-1635.6116676 -17.007863399999998) rotate(0)"><polygon class="fil0 str0" points="2256.38 19.8425 2315.91 19.8425 2315.91 25.5118 2256.38 25.5118"/></g><g transform="translate(3330.6070852000003 301.82732339999967) rotate(180)"><polygon class="fil0 str0" points="2585.2 82.2047 2644.72 82.2047 2644.72 87.874 2585.2 87.874"/></g><g transform="translate(2763.7583074000004 44.05631629999974) rotate(180)"><polygon class="fil0 str0" points="2077.8 39.685 2018.27 39.685 2018.27 34.0157 2077.8 34.0157"/></g><g transform="translate(3120.8432712 287.65409799999975) rotate(180)"><polygon class="fil0 str0" points="2369.76 73.7008 2310.24 73.7008 2310.24 68.0315 2369.76 68.0315"/></g><g transform="translate(2868.436115 119.31065579999971) rotate(180)"><polygon class="fil0 str0" points="2389.61 -59.5276 2429.29 -56.6929 2429.29 -48.189 2389.61 -48.189"/></g><g transform="translate(3285.2525529 154.7265201999997) rotate(180)"><polygon class="fil0 str0" points="2432.13 -68.0315 2468.98 -65.1969 2468.98 -56.6929 2432.13 -56.6929"/></g><g transform="translate(-1476.9521792 190.9200686) rotate(0)"><polygon class="fil0 str0" points="2335.75 19.8425 2372.6 22.6772 2372.6 31.1811 2335.75 31.1811"/></g><g transform="translate(-1724.5298960999999 159.1365547) rotate(0)"><polygon class="fil0 str0" points="2613.54 -102.047 2607.87 -104.882 2605.04 -119.055 2607.87 -121.89 2619.21 -121.89 2622.05 -119.055 2619.21 -104.882"/></g><g transform="translate(-1730.2046915 141.8096785) rotate(0)"><polygon class="fil0 str0" points="2619.21 -14.1732 2613.54 -17.0079 2610.71 -31.1811 2613.54 -34.0157 2624.88 -34.0157 2627.72 -31.1811 2624.88 -17.0079"/></g><g transform="translate(-1064.8685474 -56.647549500000004) rotate(0)"><polygon class="fil0 str0" points="1967.24 59.5276 1972.91 62.3622 1975.75 76.5354 1972.91 79.3701 1961.57 79.3701 1958.74 76.5354 1961.57 62.3622"/></g><g transform="translate(3450.710157 207.9224033999997) rotate(180)"><polygon class="fil0 str0" points="2548.35 53.8583 2554.02 56.6929 2556.85 70.8661 2554.02 73.7008 2542.68 73.7008 2539.84 70.8661 2542.68 56.6929"/></g></g></svg>